<svg width="48" height="24" viewBox="0 0 48 24" fill="none" xmlns="http://www.w3.org/2000/svg">
<path d="M2.41602 5.02H8.69602C10.336 5.02 11.616 5.43333 12.536 6.26C13.4694 7.08667 13.936 8.27333 13.936 9.82C13.936 10.86 13.7094 11.7467 13.256 12.48C12.8027 13.2133 12.1627 13.76 11.336 14.12L13.816 19H10.176L7.95602 14.62H5.95602V19H2.41602V5.02ZM8.07602 11.64C8.78268 11.64 9.32935 11.5067 9.71602 11.24C10.1027 10.96 10.296 10.4867 10.296 9.82C10.296 9.12667 10.1027 8.65333 9.71602 8.4C9.34268 8.13333 8.79602 8 8.07602 8H5.95602V11.64H8.07602ZM12.1402 5.02H15.7802L18.1202 13.3L20.3802 5.02H22.9002L25.0202 13.32L27.3402 5.02H30.9802L27.1202 19H23.8602L21.5602 10.88L19.2802 19H16.0002L12.1402 5.02Z" fill="black"/>
<path d="M35.5032 11.46C35.0365 11.46 34.6299 11.2933 34.2832 10.96C33.9499 10.6133 33.7832 10.2067 33.7832 9.74C33.7832 9.27333 33.9499 8.87333 34.2832 8.54C34.6299 8.19333 35.0365 8.02 35.5032 8.02C35.9699 8.02 36.3699 8.19333 36.7032 8.54C37.0499 8.87333 37.2232 9.27333 37.2232 9.74C37.2232 10.2067 37.0499 10.6133 36.7032 10.96C36.3699 11.2933 35.9699 11.46 35.5032 11.46ZM35.5032 17.82C35.0365 17.82 34.6299 17.6533 34.2832 17.32C33.9499 16.9733 33.7832 16.5667 33.7832 16.1C33.7832 15.6333 33.9499 15.2333 34.2832 14.9C34.6299 14.5533 35.0365 14.38 35.5032 14.38C35.9699 14.38 36.3699 14.5533 36.7032 14.9C37.0499 15.2333 37.2232 15.6333 37.2232 16.1C37.2232 16.5667 37.0499 16.9733 36.7032 17.32C36.3699 17.6533 35.9699 17.82 35.5032 17.82Z" fill="black"/>
</svg>
