<svg width="40" height="24" viewBox="0 0 40 24" fill="none" xmlns="http://www.w3.org/2000/svg">
<path d="M18.0706 13.84C18.8706 13.5467 19.4906 13.2267 19.9306 12.88C20.384 12.5333 20.6973 12.1267 20.8706 11.66C21.0573 11.1933 21.1506 10.6467 21.1506 10.02C21.1506 9.27333 20.9706 8.62667 20.6106 8.08C20.264 7.53333 19.784 7.11333 19.1706 6.82C18.5573 6.51333 17.8506 6.36 17.0506 6.36H11.4106V21H10.4506V5.4H17.0506C18.0506 5.4 18.9306 5.59333 19.6906 5.98C20.4506 6.36667 21.044 6.90667 21.4706 7.6C21.8973 8.28 22.1106 9.08667 22.1106 10.02C22.1106 11.2333 21.8773 12.1867 21.4106 12.88C20.9573 13.56 20.304 14.0533 19.4506 14.36L23.1506 21H22.0106L18.0706 13.84ZM13.0906 7.48H16.3706C17.2773 7.48 18.004 7.72667 18.5506 8.22C19.0973 8.7 19.3706 9.36 19.3706 10.2C19.3706 11.12 19.0973 11.8333 18.5506 12.34C18.0173 12.8467 17.2973 13.1 16.3906 13.1H13.0906V7.48ZM16.3906 12.14C17.004 12.14 17.4906 11.9733 17.8506 11.64C18.224 11.2933 18.4106 10.8133 18.4106 10.2C18.4106 9.64 18.2173 9.20667 17.8306 8.9C17.4573 8.59333 16.9706 8.44 16.3706 8.44H14.0506V12.14H16.3906ZM16.0706 15H14.0306V21H13.0706V14.04H16.6906L19.8906 21H18.8306L16.0706 15ZM30.7363 6.36H28.5363L26.2563 18.24H25.3163L22.9163 5.4H23.8963L25.3963 13.5C25.5029 14.02 25.5829 14.6333 25.6363 15.34C25.7029 16.0333 25.7363 16.6533 25.7363 17.2H25.8163C25.8429 16.84 25.8696 16.4467 25.8963 16.02C25.9229 15.58 25.9563 15.1467 25.9963 14.72C26.0496 14.28 26.1096 13.8933 26.1763 13.56L27.7563 5.4H31.5163L33.2163 13.48C33.2963 13.88 33.3696 14.4267 33.4363 15.12C33.5029 15.8133 33.5563 16.4733 33.5963 17.1H33.6763C33.7029 16.4733 33.7429 15.8267 33.7963 15.16C33.8629 14.4933 33.9296 13.9533 33.9963 13.54L35.3763 5.4H36.3363L34.1763 18.14H33.2163L30.7363 6.36ZM30.0963 13.18C30.0429 12.8733 29.9896 12.5067 29.9363 12.08C29.8829 11.6533 29.8363 11.2267 29.7963 10.8C29.7563 10.3733 29.7229 10 29.6963 9.68C29.6696 9.34667 29.6563 9.13333 29.6563 9.04H29.6163C29.6163 9.13333 29.6029 9.34667 29.5763 9.68C29.5496 10 29.5163 10.3733 29.4763 10.8C29.4363 11.2267 29.3896 11.6533 29.3363 12.08C29.2829 12.5067 29.2296 12.8733 29.1763 13.18L27.7563 21H23.6163L20.2763 5.4H21.2563L24.3963 20.04H26.9563L29.1363 8H30.0763L32.3763 20.04H34.7963L37.8563 5.4H38.8363L35.5763 21H31.5763L30.0963 13.18Z" fill="black"/>
</svg>
