<svg width="24" height="24" viewBox="0 0 24 24" fill="none" xmlns="http://www.w3.org/2000/svg">
<path d="M7.84944 12.988C8.40944 12.7827 8.84344 12.5587 9.15144 12.316C9.46877 12.0733 9.6881 11.7887 9.80944 11.462C9.9401 11.1353 10.0054 10.7527 10.0054 10.314C10.0054 9.79133 9.87944 9.33867 9.62744 8.956C9.38477 8.57333 9.04877 8.27933 8.61944 8.074C8.1901 7.85933 7.69544 7.752 7.13544 7.752H3.18744V18H2.51544V7.08H7.13544C7.83544 7.08 8.45144 7.21533 8.98344 7.486C9.51544 7.75667 9.93077 8.13467 10.2294 8.62C10.5281 9.096 10.6774 9.66067 10.6774 10.314C10.6774 11.1633 10.5141 11.8307 10.1874 12.316C9.87011 12.792 9.41277 13.1373 8.81544 13.352L11.4054 18H10.6074L7.84944 12.988ZM4.36344 8.536H6.65944C7.2941 8.536 7.80277 8.70867 8.18544 9.054C8.5681 9.39 8.75944 9.852 8.75944 10.44C8.75944 11.084 8.5681 11.5833 8.18544 11.938C7.8121 12.2927 7.3081 12.47 6.67344 12.47H4.36344V8.536ZM6.67344 11.798C7.10277 11.798 7.44344 11.6813 7.69544 11.448C7.95677 11.2053 8.08744 10.8693 8.08744 10.44C8.08744 10.048 7.9521 9.74467 7.68144 9.53C7.4201 9.31533 7.07944 9.208 6.65944 9.208H5.03544V11.798H6.67344ZM6.44944 13.8H5.02144V18H4.34944V13.128H6.88344L9.12344 18H8.38144L6.44944 13.8ZM16.7154 7.752H15.1754L13.5794 16.068H12.9214L11.2414 7.08H11.9274L12.9774 12.75C13.052 13.114 13.108 13.5433 13.1454 14.038C13.192 14.5233 13.2154 14.9573 13.2154 15.34H13.2714C13.29 15.088 13.3087 14.8127 13.3274 14.514C13.346 14.206 13.3694 13.9027 13.3974 13.604C13.4347 13.296 13.4767 13.0253 13.5234 12.792L14.6294 7.08H17.2614L18.4514 12.736C18.5074 13.016 18.5587 13.3987 18.6054 13.884C18.652 14.3693 18.6894 14.8313 18.7174 15.27H18.7734C18.792 14.8313 18.82 14.3787 18.8574 13.912C18.904 13.4453 18.9507 13.0673 18.9974 12.778L19.9634 7.08H20.6354L19.1234 15.998H18.4514L16.7154 7.752ZM16.2674 12.526C16.23 12.3113 16.1927 12.0547 16.1554 11.756C16.118 11.4573 16.0854 11.1587 16.0574 10.86C16.0294 10.5613 16.006 10.3 15.9874 10.076C15.9687 9.84267 15.9594 9.69333 15.9594 9.628H15.9314C15.9314 9.69333 15.922 9.84267 15.9034 10.076C15.8847 10.3 15.8614 10.5613 15.8334 10.86C15.8054 11.1587 15.7727 11.4573 15.7354 11.756C15.698 12.0547 15.6607 12.3113 15.6234 12.526L14.6294 18H11.7314L9.39337 7.08H10.0794L12.2774 17.328H14.0694L15.5954 8.9H16.2534L17.8634 17.328H19.5574L21.6994 7.08H22.3854L20.1034 18H17.3034L16.2674 12.526Z" fill="black"/>
</svg>
