<svg width="24" height="24" viewBox="0 0 24 24" fill="none" xmlns="http://www.w3.org/2000/svg">
<rect width="24" height="24" rx="12" fill="black"/>
<path d="M8.6 17.305C8.26 17.305 7.95 17.185 7.67 16.945C7.4 16.715 7.165 16.41 6.965 16.03C6.765 15.66 6.595 15.27 6.455 14.86C6.315 14.44 6.205 14.05 6.125 13.69C6.045 13.33 5.99 13.055 5.96 12.865C5.88 12.815 5.82 12.765 5.78 12.715C5.51 13.365 5.285 13.975 5.105 14.545C4.925 15.115 4.835 15.555 4.835 15.865C4.835 16.025 4.865 16.145 4.925 16.225C4.945 16.245 4.955 16.275 4.955 16.315C4.955 16.385 4.9 16.4 4.79 16.36C4.71 16.32 4.595 16.29 4.445 16.27C4.305 16.25 4.185 16.22 4.085 16.18C3.895 16.08 3.755 15.925 3.665 15.715C3.575 15.495 3.53 15.24 3.53 14.95C3.53 14.55 3.595 14.095 3.725 13.585C3.855 13.075 4.015 12.56 4.205 12.04C4.405 11.51 4.61 11.015 4.82 10.555C5.03 10.095 5.215 9.705 5.375 9.385C5.545 9.055 5.66 8.84 5.72 8.74C5.91 8.45 6.14 8.245 6.41 8.125C6.68 7.995 6.97 7.93 7.28 7.93C7.95 7.93 8.235 7.99 8.135 8.11C7.705 8.66 7.3 9.315 6.92 10.075C6.54 10.825 6.22 11.565 5.96 12.295C6.02 12.355 6.13 12.385 6.29 12.385C6.52 12.385 6.775 12.26 7.055 12.01C7.345 11.76 7.615 11.44 7.865 11.05C8.125 10.65 8.335 10.23 8.495 9.79C8.665 9.35 8.75 8.94 8.75 8.56C8.75 8.18 8.645 7.87 8.435 7.63C8.225 7.38 7.87 7.255 7.37 7.255C7.04 7.255 6.66 7.31 6.23 7.42C5.81 7.53 5.395 7.695 4.985 7.915C4.575 8.135 4.22 8.415 3.92 8.755C3.62 9.085 3.425 9.48 3.335 9.94C3.295 9.93 3.195 9.905 3.035 9.865C2.875 9.815 2.72 9.74 2.57 9.64C2.43 9.53 2.36 9.39 2.36 9.22C2.36 8.71 2.585 8.275 3.035 7.915C3.485 7.555 4.1 7.28 4.88 7.09C5.66 6.89 6.54 6.79 7.52 6.79C8.53 6.79 9.275 6.985 9.755 7.375C10.235 7.755 10.475 8.24 10.475 8.83C10.475 9.31 10.33 9.81 10.04 10.33C9.76 10.85 9.375 11.32 8.885 11.74C8.405 12.16 7.86 12.465 7.25 12.655C7.32 12.805 7.435 13.025 7.595 13.315C7.765 13.605 7.955 13.925 8.165 14.275C8.385 14.615 8.61 14.94 8.84 15.25C9.07 15.55 9.29 15.795 9.5 15.985C9.71 16.165 9.89 16.235 10.04 16.195C10.09 16.185 10.09 16.235 10.04 16.345C10 16.455 9.915 16.58 9.785 16.72C9.665 16.87 9.505 17.005 9.305 17.125C9.105 17.245 8.87 17.305 8.6 17.305ZM12.4264 16.21C11.9264 16.21 11.5464 16.075 11.2864 15.805C11.0264 15.525 10.8964 15.14 10.8964 14.65C10.8964 14.06 10.9814 13.47 11.1514 12.88C11.3314 12.29 11.5464 11.72 11.7964 11.17C12.0564 10.61 12.3114 10.09 12.5614 9.61C12.8214 9.12 13.0314 8.69 13.1914 8.32C13.2814 8.11 13.3264 7.925 13.3264 7.765C13.3264 7.555 13.2414 7.45 13.0714 7.45C12.9514 7.45 12.7764 7.535 12.5464 7.705C12.3164 7.865 12.0964 8.095 11.8864 8.395C11.4364 9.025 11.0914 9.615 10.8514 10.165C10.6114 10.715 10.4914 11.175 10.4914 11.545C10.4914 11.715 10.5214 11.86 10.5814 11.98C10.6014 12.01 10.6114 12.055 10.6114 12.115C10.6114 12.195 10.5664 12.235 10.4764 12.235C10.3864 12.235 10.2764 12.185 10.1464 12.085C9.98641 11.955 9.86641 11.795 9.78641 11.605C9.71641 11.415 9.68141 11.2 9.68141 10.96C9.68141 10.63 9.74141 10.28 9.86141 9.91C9.99141 9.54 10.1614 9.18 10.3714 8.83C10.5814 8.47 10.8214 8.155 11.0914 7.885C11.4114 7.565 11.7614 7.31 12.1414 7.12C12.5314 6.93 12.8514 6.835 13.1014 6.835C13.7214 6.835 14.1964 6.96 14.5264 7.21C14.8664 7.46 15.0364 7.765 15.0364 8.125C15.0364 8.245 15.0114 8.38 14.9614 8.53C14.8114 8.97 14.6064 9.475 14.3464 10.045C14.0964 10.605 13.8364 11.185 13.5664 11.785C13.3064 12.385 13.0814 12.965 12.8914 13.525C12.7114 14.085 12.6214 14.58 12.6214 15.01C12.6214 15.17 12.6414 15.3 12.6814 15.4C12.7314 15.49 12.8064 15.535 12.9064 15.535C13.1164 15.535 13.3564 15.365 13.6264 15.025C13.8964 14.675 14.1864 14.21 14.4964 13.63C14.8064 13.05 15.1264 12.41 15.4564 11.71C15.7164 10.98 15.9614 10.35 16.1914 9.82C16.4314 9.28 16.6164 8.91 16.7464 8.71C16.9264 8.45 17.0814 8.28 17.2114 8.2C17.3414 8.11 17.4864 8.065 17.6464 8.065C17.8164 8.055 18.0314 8.05 18.2914 8.05C18.5614 8.03 18.7764 8.045 18.9364 8.095C19.0964 8.135 19.1514 8.185 19.1014 8.245C18.7514 8.705 18.4164 9.245 18.0964 9.865C17.7864 10.485 17.5064 11.12 17.2564 11.77C17.0164 12.42 16.8264 13.025 16.6864 13.585C16.5464 14.145 16.4764 14.6 16.4764 14.95C16.4764 15.37 16.5764 15.58 16.7764 15.58C17.0164 15.58 17.2764 15.435 17.5564 15.145C17.8364 14.845 18.1164 14.46 18.3964 13.99C18.6864 13.51 18.9614 13 19.2214 12.46C19.3114 12.27 19.4314 11.975 19.5814 11.575C19.7314 11.175 19.8864 10.735 20.0464 10.255C20.2064 9.775 20.3364 9.31 20.4364 8.86C20.5464 8.41 20.6014 8.04 20.6014 7.75C20.6014 7.41 20.5164 7.24 20.3464 7.24C20.2664 7.24 20.2264 7.21 20.2264 7.15C20.2264 7.12 20.2464 7.085 20.2864 7.045C20.3264 7.005 20.3814 6.98 20.4514 6.97C20.6214 6.93 20.7964 6.91 20.9764 6.91C21.4464 6.91 21.7714 7.05 21.9514 7.33C22.1314 7.61 22.2214 7.95 22.2214 8.35C22.2214 8.68 22.1764 9.03 22.0864 9.4C21.9964 9.76 21.8914 10.095 21.7714 10.405C21.5814 10.895 21.3514 11.405 21.0814 11.935C20.8114 12.465 20.5064 12.985 20.1664 13.495C19.8264 13.995 19.4614 14.45 19.0714 14.86C18.6914 15.27 18.2964 15.595 17.8864 15.835C17.4864 16.075 17.0814 16.195 16.6714 16.195C16.1014 16.195 15.6614 16.03 15.3514 15.7C15.0414 15.36 14.8814 14.885 14.8714 14.275C14.5314 14.825 14.1564 15.285 13.7464 15.655C13.3464 16.025 12.9064 16.21 12.4264 16.21Z" fill="#F36EF5"/>
</svg>
