<svg width="40" height="24" viewBox="0 0 40 24" fill="none" xmlns="http://www.w3.org/2000/svg">
<path d="M9.91602 5.02H16.196C17.836 5.02 19.116 5.43333 20.036 6.26C20.9694 7.08667 21.436 8.27333 21.436 9.82C21.436 10.86 21.2094 11.7467 20.756 12.48C20.3027 13.2133 19.6627 13.76 18.836 14.12L21.316 19H17.676L15.456 14.62H13.456V19H9.91602V5.02ZM15.576 11.64C16.2827 11.64 16.8293 11.5067 17.216 11.24C17.6027 10.96 17.796 10.4867 17.796 9.82C17.796 9.12667 17.6027 8.65333 17.216 8.4C16.8427 8.13333 16.296 8 15.576 8H13.456V11.64H15.576ZM19.6402 5.02H23.2802L25.6202 13.3L27.8802 5.02H30.4002L32.5202 13.32L34.8402 5.02H38.4802L34.6202 19H31.3602L29.0602 10.88L26.7802 19H23.5002L19.6402 5.02Z" fill="black"/>
</svg>
