<svg width="24" height="24" viewBox="0 0 24 24" fill="none" xmlns="http://www.w3.org/2000/svg">
<rect width="24" height="24" rx="12" fill="black"/>
<path d="M10.58 17.825C10.18 17.825 9.845 17.69 9.575 17.42C9.305 17.16 9.055 16.885 8.825 16.595C8.785 16.545 8.75 16.495 8.72 16.445C8.69 16.395 8.655 16.35 8.615 16.31C8.605 16.3 8.585 16.28 8.555 16.25C8.525 16.23 8.51 16.215 8.51 16.205C8.51 16.175 8.515 16.155 8.525 16.145C8.545 16.145 8.555 16.135 8.555 16.115C8.555 16.105 8.535 16.1 8.495 16.1C8.475 16.1 8.45 16.085 8.42 16.055C8.39 16.035 8.375 16.015 8.375 15.995C8.375 15.975 8.375 15.955 8.375 15.935C8.385 15.925 8.39 15.915 8.39 15.905C8.39 15.905 8.39 15.895 8.39 15.875C8.39 15.855 8.385 15.845 8.375 15.845C8.345 15.845 8.33 15.85 8.33 15.86C8.33 15.88 8.32 15.89 8.3 15.89C8.28 15.89 8.27 15.88 8.27 15.86C8.28 15.84 8.285 15.825 8.285 15.815C8.285 15.805 8.275 15.8 8.255 15.8C8.245 15.81 8.24 15.815 8.24 15.815C8.23 15.815 8.225 15.81 8.225 15.8C8.225 15.75 8.225 15.73 8.225 15.74C8.235 15.76 8.24 15.745 8.24 15.695C8.24 15.655 8.22 15.63 8.18 15.62C8.15 15.62 8.12 15.605 8.09 15.575C8.08 15.555 8.04 15.495 7.97 15.395C7.9 15.295 7.835 15.195 7.775 15.095C7.715 14.985 7.685 14.925 7.685 14.915C7.685 14.895 7.69 14.885 7.7 14.885C7.71 14.885 7.715 14.875 7.715 14.855C7.715 14.835 7.705 14.83 7.685 14.84C7.665 14.85 7.65 14.855 7.64 14.855L7.625 14.84C7.565 14.78 7.515 14.71 7.475 14.63C7.445 14.55 7.405 14.475 7.355 14.405L6.635 13.085C6.585 12.995 6.51 12.865 6.41 12.695C6.31 12.525 6.2 12.44 6.08 12.44C6.05 12.44 6.01 12.45 5.96 12.47C5.91 12.48 5.885 12.5 5.885 12.53L5.855 12.515H5.84V12.5H5.855C5.915 12.42 6.01 12.355 6.14 12.305C6.28 12.245 6.395 12.215 6.485 12.215C6.595 12.215 6.685 12.255 6.755 12.335C6.825 12.405 6.91 12.44 7.01 12.44C7.03 12.44 7.07 12.435 7.13 12.425C7.19 12.415 7.225 12.4 7.235 12.38C7.285 12.39 7.37 12.38 7.49 12.35C7.62 12.32 7.715 12.3 7.775 12.29C7.885 12.22 7.995 12.175 8.105 12.155C8.225 12.125 8.34 12.09 8.45 12.05C8.61 12 8.83 11.915 9.11 11.795C9.39 11.675 9.675 11.535 9.965 11.375C10.255 11.215 10.5 11.045 10.7 10.865C10.9 10.675 11 10.485 11 10.295C11 10.195 10.96 10.105 10.88 10.025C10.81 9.935 10.735 9.865 10.655 9.815C10.385 9.615 10.08 9.475 9.74 9.395C9.4 9.315 9.05 9.265 8.69 9.245C8.34 9.225 8.005 9.215 7.685 9.215C7.435 9.215 7.19 9.22 6.95 9.23C6.72 9.23 6.48 9.25 6.23 9.29C5.75 9.36 5.265 9.435 4.775 9.515C4.295 9.585 3.83 9.715 3.38 9.905C3.31 9.935 3.19 9.995 3.02 10.085C2.86 10.165 2.78 10.25 2.78 10.34C2.78 10.4 2.84 10.44 2.96 10.46C3.08 10.48 3.205 10.495 3.335 10.505C3.475 10.505 3.57 10.505 3.62 10.505V10.535H3.575C3.535 10.575 3.475 10.595 3.395 10.595C3.315 10.595 3.245 10.595 3.185 10.595C3.115 10.595 3.05 10.6 2.99 10.61C2.93 10.61 2.865 10.61 2.795 10.61C2.685 10.61 2.57 10.585 2.45 10.535C2.34 10.475 2.285 10.375 2.285 10.235C2.285 10.185 2.345 10.11 2.465 10.01C2.585 9.9 2.715 9.805 2.855 9.725C3.005 9.635 3.105 9.59 3.155 9.59L3.2 9.605L3.47 9.47L3.485 9.485C3.685 9.435 3.885 9.38 4.085 9.32C4.285 9.26 4.485 9.225 4.685 9.215C4.705 9.205 4.73 9.2 4.76 9.2C4.8 9.2 4.825 9.19 4.835 9.17C5.065 9.13 5.29 9.1 5.51 9.08C5.74 9.05 5.97 9.025 6.2 9.005C6.27 8.995 6.34 8.985 6.41 8.975C6.48 8.955 6.55 8.945 6.62 8.945C6.79 8.945 6.965 8.95 7.145 8.96C7.325 8.97 7.5 8.975 7.67 8.975C8.04 8.975 8.435 8.99 8.855 9.02C9.275 9.05 9.67 9.135 10.04 9.275C10.42 9.415 10.73 9.65 10.97 9.98C11.03 10.06 11.085 10.15 11.135 10.25C11.195 10.35 11.225 10.455 11.225 10.565C11.225 10.685 11.18 10.825 11.09 10.985C11.01 11.135 10.91 11.275 10.79 11.405C10.68 11.535 10.57 11.625 10.46 11.675C10.37 11.715 10.275 11.75 10.175 11.78C10.075 11.8 9.98 11.825 9.89 11.855C9.78 11.895 9.675 11.95 9.575 12.02C9.475 12.09 9.365 12.145 9.245 12.185C8.905 12.315 8.535 12.415 8.135 12.485C7.735 12.545 7.35 12.575 6.98 12.575C6.99 12.645 7.025 12.755 7.085 12.905C7.155 13.055 7.23 13.205 7.31 13.355C7.39 13.505 7.45 13.615 7.49 13.685C7.59 13.855 7.735 14.105 7.925 14.435C8.115 14.755 8.33 15.105 8.57 15.485C8.82 15.855 9.08 16.21 9.35 16.55C9.62 16.89 9.885 17.17 10.145 17.39C10.415 17.61 10.66 17.72 10.88 17.72C11.04 17.72 11.19 17.65 11.33 17.51C11.42 17.42 11.495 17.255 11.555 17.015C11.615 16.775 11.655 16.53 11.675 16.28C11.705 16.03 11.71 15.845 11.69 15.725H11.72V15.74H11.735C11.765 15.8 11.78 15.855 11.78 15.905C11.79 15.965 11.795 16.025 11.795 16.085C11.795 16.205 11.8 16.32 11.81 16.43C11.82 16.55 11.825 16.67 11.825 16.79C11.825 16.88 11.82 16.97 11.81 17.06C11.8 17.15 11.775 17.235 11.735 17.315C11.685 17.425 11.59 17.52 11.45 17.6C11.31 17.68 11.16 17.735 11 17.765C10.84 17.805 10.7 17.825 10.58 17.825ZM4.58 15.995C4.37 15.995 4.185 15.91 4.025 15.74C3.865 15.57 3.785 15.385 3.785 15.185C3.785 14.925 3.85 14.66 3.98 14.39C4.12 14.12 4.255 13.88 4.385 13.67C4.515 13.45 4.58 13.3 4.58 13.22C4.6 13.2 4.63 13.17 4.67 13.13C4.72 13.08 4.735 13.05 4.715 13.04C4.855 12.82 4.995 12.61 5.135 12.41C5.275 12.2 5.42 12 5.57 11.81C5.6 11.76 5.625 11.715 5.645 11.675C5.675 11.635 5.705 11.595 5.735 11.555C5.805 11.465 5.875 11.38 5.945 11.3C6.025 11.21 6.1 11.12 6.17 11.03C6.28 10.89 6.385 10.75 6.485 10.61C6.595 10.47 6.7 10.33 6.8 10.19C6.86 10.12 6.94 10.035 7.04 9.935C7.15 9.835 7.205 9.74 7.205 9.65C7.205 9.6 7.185 9.565 7.145 9.545C7.115 9.515 7.1 9.48 7.1 9.44L7.13 9.425C7.24 9.435 7.375 9.475 7.535 9.545C7.705 9.605 7.79 9.71 7.79 9.86C7.79 9.89 7.785 9.91 7.775 9.92C7.765 10.01 7.705 10.105 7.595 10.205C7.495 10.305 7.385 10.4 7.265 10.49C7.145 10.58 7.05 10.66 6.98 10.73C6.75 10.98 6.475 11.295 6.155 11.675C5.845 12.045 5.54 12.445 5.24 12.875C4.94 13.305 4.69 13.74 4.49 14.18C4.29 14.61 4.19 15.015 4.19 15.395C4.19 15.475 4.205 15.565 4.235 15.665C4.275 15.775 4.35 15.83 4.46 15.83C4.51 15.79 4.615 15.715 4.775 15.605C4.945 15.505 5.105 15.4 5.255 15.29C5.415 15.17 5.495 15.09 5.495 15.05H5.525C5.495 15.13 5.45 15.2 5.39 15.26C5.34 15.32 5.29 15.385 5.24 15.455C5.17 15.555 5.08 15.67 4.97 15.8C4.86 15.93 4.73 15.995 4.58 15.995ZM17.8256 16.73C17.7556 16.73 17.6806 16.705 17.6006 16.655C17.5206 16.615 17.4806 16.55 17.4806 16.46C17.4806 16.43 17.4856 16.41 17.4956 16.4C17.6056 16.02 17.7606 15.665 17.9606 15.335C18.1706 15.005 18.3806 14.68 18.5906 14.36C18.6506 14.27 18.7156 14.18 18.7856 14.09C18.8556 14 18.9156 13.905 18.9656 13.805C19.0056 13.735 19.0406 13.665 19.0706 13.595C19.1006 13.525 19.1356 13.455 19.1756 13.385C19.2856 13.205 19.4056 13.03 19.5356 12.86C19.6756 12.69 19.8006 12.52 19.9106 12.35L20.1356 12.005C20.1956 11.915 20.2956 11.765 20.4356 11.555C20.5756 11.345 20.7356 11.115 20.9156 10.865C21.1056 10.605 21.2906 10.35 21.4706 10.1C21.6606 9.85 21.8256 9.635 21.9656 9.455C22.1156 9.275 22.2256 9.165 22.2956 9.125C22.4056 8.895 22.5656 8.68 22.7756 8.48C22.9856 8.28 23.1806 8.095 23.3606 7.925C23.4506 7.835 23.5956 7.71 23.7956 7.55C23.9956 7.39 24.2156 7.225 24.4556 7.055C24.7056 6.875 24.9556 6.725 25.2056 6.605C25.4556 6.485 25.6806 6.425 25.8806 6.425C26.0706 6.425 26.2256 6.495 26.3456 6.635C26.4656 6.775 26.5256 7.02 26.5256 7.37C26.5256 7.44 26.5156 7.525 26.4956 7.625C26.4756 7.715 26.4556 7.795 26.4356 7.865C26.3856 7.985 26.3156 8.13 26.2256 8.3C26.1356 8.46 26.0556 8.6 25.9856 8.72C25.9456 8.8 25.8956 8.845 25.8356 8.855V8.81C25.8356 8.78 25.8456 8.77 25.8656 8.78C25.9356 8.56 25.9956 8.325 26.0456 8.075C26.1056 7.815 26.1356 7.575 26.1356 7.355C26.1356 7.225 26.1106 7.09 26.0606 6.95C26.0206 6.81 25.9156 6.74 25.7456 6.74C25.5056 6.74 25.2456 6.825 24.9656 6.995C24.6856 7.165 24.4056 7.38 24.1256 7.64C23.8456 7.89 23.5956 8.14 23.3756 8.39C23.1656 8.64 23.0056 8.845 22.8956 9.005C22.8856 9.015 22.8756 9.03 22.8656 9.05C22.8556 9.07 22.8406 9.085 22.8206 9.095C22.7806 9.115 22.7406 9.16 22.7006 9.23C22.6606 9.3 22.6306 9.355 22.6106 9.395C22.4606 9.485 22.3856 9.575 22.3856 9.665C22.3956 9.745 22.3506 9.825 22.2506 9.905C22.1206 10.005 21.9956 10.13 21.8756 10.28C21.7656 10.42 21.6856 10.575 21.6356 10.745C21.6256 10.755 21.6206 10.77 21.6206 10.79C21.6206 10.81 21.6106 10.82 21.5906 10.82C21.4506 10.92 21.3406 11.02 21.2606 11.12C21.1906 11.2 21.1206 11.29 21.0506 11.39C20.9906 11.48 20.9256 11.57 20.8556 11.66L20.0306 12.83L19.4156 13.715C19.3756 13.785 19.3306 13.855 19.2806 13.925C19.2306 13.985 19.1856 14.05 19.1456 14.12L18.8756 14.675C18.8356 14.755 18.7956 14.845 18.7556 14.945C18.7156 15.035 18.6706 15.12 18.6206 15.2C18.6306 15.22 18.6356 15.255 18.6356 15.305C18.6356 15.435 18.6006 15.61 18.5306 15.83C18.4706 16.06 18.3806 16.265 18.2606 16.445C18.1406 16.635 17.9956 16.73 17.8256 16.73ZM12.2156 16.07C12.0956 16.07 12.0056 16.005 11.9456 15.875C11.8856 15.745 11.8556 15.63 11.8556 15.53C11.8556 15.21 11.9606 14.915 12.1706 14.645C12.3806 14.365 12.5756 14.115 12.7556 13.895C13.0856 13.485 13.4406 13.1 13.8206 12.74C14.2006 12.38 14.6056 12.05 15.0356 11.75C15.0556 11.67 15.0806 11.575 15.1106 11.465C15.1506 11.345 15.2056 11.265 15.2756 11.225C15.2956 11.205 15.3056 11.185 15.3056 11.165C15.3056 11.125 15.2806 11.11 15.2306 11.12C15.1806 11.13 15.1606 11.12 15.1706 11.09L15.2006 11.06C15.2806 10.82 15.3556 10.54 15.4256 10.22C15.4956 9.9 15.5506 9.58 15.5906 9.26C15.6406 8.93 15.6656 8.645 15.6656 8.405C15.6656 8.285 15.6506 8.16 15.6206 8.03C15.6006 7.9 15.5106 7.835 15.3506 7.835C15.2606 7.835 15.1706 7.85 15.0806 7.88C15.0006 7.91 14.9206 7.94 14.8406 7.97C14.2806 8.18 13.7556 8.475 13.2656 8.855C12.7756 9.235 12.3356 9.65 11.9456 10.1C11.6956 10.38 11.4456 10.69 11.1956 11.03C10.9456 11.36 10.8206 11.73 10.8206 12.14C10.8206 12.34 10.8456 12.455 10.8956 12.485C10.9456 12.505 10.9856 12.565 11.0156 12.665H10.9856L11.0006 12.68C10.8506 12.59 10.7356 12.46 10.6556 12.29C10.5856 12.11 10.5506 11.935 10.5506 11.765C10.5506 11.405 10.6756 11.035 10.9256 10.655C11.1756 10.275 11.4856 9.905 11.8556 9.545C12.2356 9.185 12.6206 8.87 13.0106 8.6C13.4106 8.32 13.7606 8.105 14.0606 7.955C14.1606 7.905 14.2556 7.86 14.3456 7.82C14.4356 7.77 14.5306 7.735 14.6306 7.715C14.6606 7.705 14.6906 7.7 14.7206 7.7C14.7606 7.7 14.7956 7.695 14.8256 7.685C14.8456 7.685 14.8806 7.675 14.9306 7.655C14.9906 7.635 15.0256 7.625 15.0356 7.625C15.1956 7.625 15.3606 7.66 15.5306 7.73C15.7106 7.79 15.8606 7.885 15.9806 8.015C16.1106 8.135 16.1806 8.285 16.1906 8.465C16.2006 8.505 16.2056 8.55 16.2056 8.6C16.2056 8.65 16.2056 8.7 16.2056 8.75C16.2056 9.19 16.1356 9.62 15.9956 10.04C15.9356 10.23 15.8756 10.43 15.8156 10.64C15.7556 10.84 15.6856 11.025 15.6056 11.195C15.5956 11.235 15.5806 11.27 15.5606 11.3C15.5506 11.33 15.5406 11.365 15.5306 11.405C15.7206 11.285 15.9506 11.155 16.2206 11.015C16.5006 10.875 16.7856 10.755 17.0756 10.655C17.3656 10.545 17.6206 10.49 17.8406 10.49C18.1006 10.49 18.2806 10.575 18.3806 10.745C18.4906 10.915 18.5556 11.12 18.5756 11.36C18.6056 11.59 18.6206 11.805 18.6206 12.005C18.6206 12.495 18.5706 12.99 18.4706 13.49C18.3706 13.99 18.2056 14.46 17.9756 14.9C17.9656 14.91 17.9606 14.92 17.9606 14.93C17.9606 14.94 17.9506 14.945 17.9306 14.945C17.9106 14.945 17.8956 14.925 17.8856 14.885C17.8756 14.835 17.8706 14.805 17.8706 14.795C17.8706 14.745 17.8756 14.71 17.8856 14.69C18.0256 14.38 18.1256 14.1 18.1856 13.85C18.2556 13.6 18.2906 13.305 18.2906 12.965C18.2906 12.795 18.2856 12.62 18.2756 12.44C18.2656 12.26 18.2506 12.08 18.2306 11.9C18.2106 11.74 18.1706 11.565 18.1106 11.375C18.0506 11.185 17.9156 11.09 17.7056 11.09C17.6656 11.09 17.6306 11.095 17.6006 11.105C17.5706 11.105 17.5406 11.11 17.5106 11.12C17.0406 11.24 16.6406 11.39 16.3106 11.57C15.9906 11.74 15.6256 11.955 15.2156 12.215C15.1156 12.455 15.0056 12.695 14.8856 12.935C14.7656 13.175 14.6456 13.415 14.5256 13.655C14.4256 13.865 14.3156 14.07 14.1956 14.27C14.0756 14.47 13.9456 14.66 13.8056 14.84C13.7756 14.88 13.7406 14.92 13.7006 14.96C13.6606 15 13.6256 15.04 13.5956 15.08C13.4956 15.21 13.4156 15.295 13.3556 15.335C13.3056 15.375 13.2256 15.45 13.1156 15.56C12.9756 15.69 12.8406 15.805 12.7106 15.905C12.5906 16.015 12.4256 16.07 12.2156 16.07ZM12.2006 15.845C12.4906 15.845 12.7656 15.72 13.0256 15.47C13.2956 15.21 13.5406 14.89 13.7606 14.51C13.9906 14.13 14.1856 13.755 14.3456 13.385C14.5156 13.015 14.6506 12.72 14.7506 12.5C14.3806 12.74 14.0756 12.97 13.8356 13.19C13.5956 13.4 13.3356 13.68 13.0556 14.03C12.9556 14.15 12.8256 14.305 12.6656 14.495C12.5156 14.675 12.3756 14.865 12.2456 15.065C12.1256 15.255 12.0656 15.425 12.0656 15.575C12.0656 15.605 12.0806 15.655 12.1106 15.725C12.1406 15.805 12.1706 15.845 12.2006 15.845Z" fill="white"/>
</svg>
